<?xml version="1.0" encoding="utf-8"?>
<!-- Generator: Adobe Illustrator 21.0.0, SVG Export Plug-In . SVG Version: 6.00 Build 0)  -->
<svg version="1.1" id="Layer_1" xmlns="http://www.w3.org/2000/svg" xmlns:xlink="http://www.w3.org/1999/xlink" x="0px" y="0px"
	 viewBox="0 0 200 200" style="enable-background:new 0 0 200 200;" xml:space="preserve">
<style type="text/css">
	.st0{fill:#0058A9;}
	.st1{fill:#FFFFFF;}
</style>
<circle class="st0" cx="99.5" cy="99.5" r="99"/>
<g>
	<path class="st1" d="M78.7,71.9c5.6-5.7,12.6-8.5,21.2-8.5c11.5,0,19.9,3.8,25.2,11.4c2.9,4.3,4.5,8.6,4.7,12.9h-14.4
		c-0.9-3.3-2.1-5.8-3.5-7.5c-2.6-3-6.4-4.5-11.4-4.5c-5.1,0-9.2,2.1-12.2,6.4c-3,4.2-4.5,10.2-4.5,18c0,7.7,1.6,13.6,4.7,17.4
		c3.1,3.9,7.1,5.8,11.9,5.8c5,0,8.7-1.7,11.3-5c1.4-1.8,2.6-4.5,3.6-8h14.3c-1.2,7.5-4.4,13.7-9.5,18.4c-5.1,4.7-11.6,7.1-19.5,7.1
		c-9.8,0-17.6-3.2-23.2-9.6c-5.6-6.4-8.4-15.2-8.4-26.3C69.1,87.7,72.3,78.4,78.7,71.9z"/>
</g>
</svg>
