<?xml version="1.0" encoding="utf-8"?>
<!-- Generator: Adobe Illustrator 21.0.0, SVG Export Plug-In . SVG Version: 6.00 Build 0)  -->
<svg version="1.1" id="Layer_1" xmlns="http://www.w3.org/2000/svg" xmlns:xlink="http://www.w3.org/1999/xlink" x="0px" y="0px"
	 viewBox="0 0 866 63" style="enable-background:new 0 0 866 63;" xml:space="preserve">
<style type="text/css">
	.st0{fill:#F8F8F8;}
	.st1{fill:#FFFFFF;}
</style>
<rect y="-2" class="st0" width="866" height="65"/>
<g>
	<rect x="0.5" y="0.5" width="62" height="62"/>
</g>
<g>
	<rect x="71" y="0.5" width="62" height="62"/>
</g>
<g>
	<rect x="189.5" y="0.5" width="62" height="62"/>
</g>
<g>
	<rect x="260" y="0.5" width="62" height="62"/>
</g>
<g>
	<rect x="331" y="0.5" width="62" height="62"/>
</g>
<g>
	<rect x="449.5" y="0.5" width="62" height="62"/>
</g>
<g>
	<rect x="520" y="0.5" width="62" height="62"/>
</g>
<g>
	<rect x="591" y="0.5" width="62" height="62"/>
</g>
<g>
	<rect x="662.5" y="0.5" width="62" height="62"/>
</g>
<g>
	<rect x="733" y="0.5" width="62" height="62"/>
</g>
<g>
	<rect x="804" y="0.5" width="62" height="62"/>
</g>
<g>
	<path class="st1" d="M33.3,40.1h-3.6V22.9h3.6V40.1z"/>
</g>
<g>
	<path class="st1" d="M95,22.9h3.8l6.9,12v-12h3.4v17.3h-3.6l-7-12.3v12.3H95V22.9z"/>
</g>
<g>
	<path class="st1" d="M227.5,22.9v3.1h-5.2v14.2h-3.6V25.9h-5.2v-3.1H227.5z"/>
</g>
<g>
	<path class="st1" d="M284.1,40.1V22.9h3.6v6.6h6.7v-6.6h3.6v17.3h-3.6v-7.7h-6.7v7.7H284.1z"/>
</g>
<g>
	<path class="st1" d="M368.1,25.9H359v3.7h8.4v3H359V37h9.6v3.1h-13.1V22.9h12.7V25.9z"/>
</g>
<g>
	<path class="st1" d="M476.8,34.8c0.1,0.8,0.3,1.4,0.7,1.8c0.6,0.7,1.6,1.1,3.1,1.1c0.9,0,1.6-0.1,2.1-0.3c1-0.4,1.5-1,1.5-2
		c0-0.6-0.3-1-0.8-1.3c-0.5-0.3-1.3-0.6-2.4-0.8l-1.9-0.4c-1.8-0.4-3.1-0.8-3.8-1.3c-1.2-0.8-1.7-2-1.7-3.7c0-1.5,0.6-2.8,1.7-3.9
		c1.1-1,2.8-1.5,5-1.5c1.8,0,3.4,0.5,4.7,1.4s2,2.4,2,4.2h-3.5c-0.1-1-0.5-1.8-1.4-2.2c-0.6-0.3-1.3-0.4-2.2-0.4
		c-1,0-1.7,0.2-2.3,0.6c-0.6,0.4-0.9,0.9-0.9,1.6c0,0.6,0.3,1.1,0.8,1.4c0.4,0.2,1.1,0.4,2.3,0.7l3,0.7c1.3,0.3,2.3,0.7,3,1.3
		c1,0.8,1.5,2,1.5,3.5c0,1.6-0.6,2.9-1.8,3.9c-1.2,1-2.9,1.6-5.2,1.6c-2.3,0-4.1-0.5-5.4-1.5c-1.3-1-2-2.4-2-4.2H476.8z"/>
</g>
<g>
	<path class="st1" d="M544.1,22.6h3.7v10.6c0,1.2,0.1,2.1,0.4,2.6c0.4,1,1.4,1.5,2.8,1.5c1.5,0,2.4-0.5,2.8-1.5
		c0.3-0.5,0.4-1.4,0.4-2.6V22.6h3.7v10.6c0,1.8-0.3,3.3-0.9,4.3c-1.1,1.9-3.1,2.8-6.1,2.8s-5-0.9-6.1-2.8c-0.6-1-0.9-2.5-0.9-4.3
		V22.6z"/>
</g>
<g>
	<path class="st1" d="M627.7,24.7c0.5,0.7,0.8,1.6,0.8,2.6c0,1.1-0.3,1.9-0.8,2.5c-0.3,0.4-0.7,0.7-1.3,1c0.9,0.3,1.5,0.8,2,1.5
		s0.7,1.5,0.7,2.5c0,1-0.3,1.9-0.8,2.8c-0.3,0.5-0.7,1-1.2,1.4c-0.6,0.4-1.2,0.7-2,0.9c-0.7,0.2-1.6,0.2-2.4,0.2h-7.8V22.9h8.3
		C625.4,22.9,626.9,23.5,627.7,24.7z M618.4,25.9v3.8h4.2c0.8,0,1.4-0.1,1.8-0.4c0.5-0.3,0.7-0.8,0.7-1.5c0-0.8-0.3-1.3-0.9-1.6
		c-0.5-0.2-1.2-0.3-2-0.3H618.4z M618.4,32.5v4.6h4.2c0.7,0,1.3-0.1,1.8-0.3c0.8-0.4,1.1-1.1,1.1-2.2c0-0.9-0.4-1.5-1.1-1.9
		c-0.4-0.2-1-0.3-1.7-0.3H618.4z"/>
</g>
<g>
	<path class="st1" d="M686.4,22.9l2.3,9.9l0.5,2.8l0.5-2.7l2-9.9h3.8l2.1,9.9l0.5,2.8l0.5-2.6l2.3-10h3.7l-4.9,17.3h-3.5L694.1,30
		l-0.6-3.3l-0.6,3.3l-2.1,10.1h-3.4l-4.9-17.3H686.4z"/>
</g>
<g>
	<path class="st1" d="M762,22.9h4.1l6.1,17.3h-3.9l-1.1-3.6h-6.4l-1.2,3.6h-3.8L762,22.9z M761.7,33.6h4.4l-2.2-6.8L761.7,33.6z"/>
</g>
<g>
	<path class="st1" d="M838.6,22.9h4.1l-5.8,10.8v6.5h-3.6v-6.5l-6-10.8h4.3l3.6,7.5L838.6,22.9z"/>
</g>
</svg>
